<svg xmlns="http://www.w3.org/2000/svg" width="34" height="35" fill="none" viewBox="0 0 34 35"><g fill="#ea1d5d" clip-path="url(#a)"><path d="m26.22 19.618-3.06-2.246a2.13 2.13 0 0 0-1.603-.389 2.13 2.13 0 0 0-1.406.861l-.946 1.302-.031.047c-.145.02-.91.036-2.74-1.427l-.197-.14c-1.912-1.275-2.13-2.007-2.155-2.157.01-.015.026-.031.036-.047l.946-1.301a2.167 2.167 0 0 0-.47-3.019l-3.118-2.281a2.147 2.147 0 0 0-3.008.472L7.51 10.61c-.925 1.276-1.168 2.95-.646 4.48.76 2.215 2.668 4.554 5.687 6.96.051.062.113.114.18.166l.223.156c.072.057.145.108.217.166q.102.077.212.124c3.205 2.147 6.007 3.262 8.343 3.309h.099c1.525 0 2.982-.752 3.903-2.023l.956-1.317a2.15 2.15 0 0 0 .388-1.608 2.1 2.1 0 0 0-.853-1.405m-1.2 1.794-.956 1.317c-.548.752-1.427 1.183-2.29 1.167-1.396-.03-3.836-.612-7.589-3.2-3.603-2.8-4.9-4.952-5.355-6.275-.3-.876-.166-1.866.356-2.582l.957-1.317a.09.09 0 0 1 .118-.021l3.118 2.282a.09.09 0 0 1 .02.119l-.904 1.24c-.274.3-.517.809-.476 1.457.083 1.198 1.086 2.427 3.04 3.728l.119.089c1.866 1.493 3.34 2.08 4.502 1.794a1.96 1.96 0 0 0 1.236-.897l.904-1.24c.026-.03.088-.041.12-.02l3.065 2.245c.031.016.036.078.015.114"/><path d="M17.003 0C7.63 0 0 7.65 0 17.057c0 3.962 1.37 7.779 3.867 10.828L.997 33.49A1.037 1.037 0 0 0 1.918 35q.149-.002.296-.041l7.831-2.334a16.8 16.8 0 0 0 6.953 1.488C26.37 34.113 34 26.463 34 17.057 34 7.649 26.375 0 17.003 0m0 32.034c-2.25 0-4.415-.488-6.426-1.458a1.04 1.04 0 0 0-.74-.057L3.95 32.277l2.078-4.065a1.04 1.04 0 0 0-.15-1.167 14.98 14.98 0 0 1-3.81-9.988c0-8.262 6.7-14.983 14.935-14.983s14.93 6.721 14.93 14.983c0 8.26-6.695 14.977-14.93 14.977"/></g><defs><clipPath id="a"><path fill="#fff" d="M0 0h34v35H0z"/></clipPath></defs></svg>