<svg xmlns="http://www.w3.org/2000/svg" width="120" height="33" fill="none" viewBox="0 0 120 33"><path fill="#acc1cc" d="M37.173.429h-2.364v31.76h2.364zM21.297 15.628H9.77v2.18h11.526z"/><path fill="#acc1cc" d="M.955.43v31.743H3.32V2.61h24.496V.43zM108.212.298H89.381v31.759h2.364V2.478h16.27c5.73 0 9.637 2.624 9.637 7.674v.098c0 4.722-3.989 7.805-9.9 7.805h-7.453v2.18h7.305c6.633 0 12.396-3.443 12.396-10.116v-.098c.016-6.133-4.794-9.723-11.788-9.723M75.656 18.038 64.623.183h-2.266L42.707 32.156h2.462L63.441 2.774l9.522 15.264zM79.268 23.908H76.64l5.138 8.248h2.594z"/></svg>