<svg xmlns="http://www.w3.org/2000/svg" width="34" height="40" fill="none" viewBox="0 0 34 40"><g clip-path="url(#a)"><path fill="#ea1d5d" d="m22.518 38.071 4.332-4.309-6.128-7.234-4.863 2.587a.935.935 0 0 1-1.085-.15c-1.707-1.408-3.553-3.83-5.052-6.43l-.029-.054c-1.503-2.617-2.674-5.44-3.021-7.62a.93.93 0 0 1 .428-.94L11.766 11l-3.193-8.93-5.892 1.6a13 13 0 0 0-.68 2.83c-.691 5.317 1.262 11.963 4.635 17.815l.027.049c3.371 5.829 8.13 10.823 13.065 12.879.932.387 1.864.669 2.79.828zM20.68 3.232a.935.935 0 0 1 .644-1.758 18.8 18.8 0 0 1 5.705 3.372 20 20 0 0 1 4.297 5.197 20 20 0 0 1 2.348 6.331c.418 2.24.431 4.487.065 6.628a.936.936 0 1 1-1.843-.315 17 17 0 0 0-.057-5.976 18.1 18.1 0 0 0-2.128-5.73 18.1 18.1 0 0 0-3.895-4.713 16.9 16.9 0 0 0-5.135-3.035m-1.38 5.16a.935.935 0 0 1 .644-1.757 13.1 13.1 0 0 1 3.976 2.346 13.9 13.9 0 0 1 2.991 3.62 13.9 13.9 0 0 1 1.633 4.402c.29 1.56.298 3.127.041 4.617a.936.936 0 1 1-1.844-.315 11.3 11.3 0 0 0-.034-3.965 12 12 0 0 0-1.413-3.81 12 12 0 0 0-2.589-3.128 11.2 11.2 0 0 0-3.406-2.01m-1.287 4.825a.936.936 0 0 1 .637-1.758c.846.308 1.65.776 2.366 1.388a8.2 8.2 0 0 1 1.768 2.137h.002c.481.833.8 1.717.963 2.606.171.927.175 1.857.021 2.74a.937.937 0 1 1-1.844-.323 5.9 5.9 0 0 0-.014-2.08 6.3 6.3 0 0 0-.744-2.007v-.004a6.3 6.3 0 0 0-1.366-1.65 5.9 5.9 0 0 0-1.788-1.05zM28.78 34.48l-5.278 5.249a.93.93 0 0 1-.78.264 14.6 14.6 0 0 1-3.71-1.021C13.697 36.758 8.617 31.46 5.055 25.305l-.032-.051C1.46 19.076-.593 11.999.153 6.26c.17-1.304.481-2.539.95-3.681.099-.28.329-.51.639-.594L8.92.033a.935.935 0 0 1 1.126.59l3.738 10.454a.936.936 0 0 1-.387 1.11l-4.763 2.982c.414 1.867 1.418 4.186 2.678 6.38l.03.046c1.273 2.21 2.79 4.26 4.205 5.563l4.964-2.64a.936.936 0 0 1 1.151.222l7.174 8.47a.937.937 0 0 1-.055 1.266v.004z"/></g><defs><clipPath id="a"><path fill="#fff" d="M0 0h34v40H0z"/></clipPath></defs></svg>